<svg width="22" height="22" viewBox="0 0 22 22" fill="none" xmlns="http://www.w3.org/2000/svg">
<path d="M11.75 6.75C11.75 6.33579 11.4142 6 11 6C10.5858 6 10.25 6.33579 10.25 6.75V10.25H6.75C6.33579 10.25 6 10.5858 6 11C6 11.4142 6.33579 11.75 6.75 11.75H10.25V15.25C10.25 15.6642 10.5858 16 11 16C11.4142 16 11.75 15.6642 11.75 15.25V11.75H15.25C15.6642 11.75 16 11.4142 16 11C16 10.5858 15.6642 10.25 15.25 10.25H11.75V6.75Z" fill="#FCFCFC"/>
<path fill-rule="evenodd" clip-rule="evenodd" d="M11 0C4.92487 0 0 4.92487 0 11C0 17.0751 4.92487 22 11 22C17.0751 22 22 17.0751 22 11C22 4.92487 17.0751 0 11 0ZM1.5 11C1.5 5.75329 5.75329 1.5 11 1.5C16.2467 1.5 20.5 5.75329 20.5 11C20.5 16.2467 16.2467 20.5 11 20.5C5.75329 20.5 1.5 16.2467 1.5 11Z" fill="#FCFCFC"/>
</svg>
